<?xml version="1.0" encoding="UTF-8" standalone="no"?>
<svg
   xmlns:svg="http://www.w3.org/2000/svg"
   xmlns="http://www.w3.org/2000/svg"
   xmlns:sodipodi="http://sodipodi.sourceforge.net/DTD/sodipodi-0.dtd"
   xmlns:inkscape="http://www.inkscape.org/namespaces/inkscape"
   inkscape:version="1.1-dev (1:0.92.0+devel+202005110039+9ce7266)"
   sodipodi:docname="logo.svg"
   id="svg4515"
   height="560"
   width="560"
   version="1.0">
  <sodipodi:namedview
     inkscape:current-layer="svg4515"
     inkscape:window-maximized="0"
     inkscape:window-y="114"
     inkscape:window-x="84"
     inkscape:cy="249.30547"
     inkscape:cx="280.92402"
     inkscape:zoom="1.005423"
     inkscape:showpageshadow="false"
     units="px"
     showgrid="false"
     id="namedview58"
     inkscape:window-height="929"
     inkscape:window-width="1696"
     inkscape:pageshadow="2"
     inkscape:pageopacity="0"
     guidetolerance="10"
     gridtolerance="10"
     objecttolerance="10"
     borderopacity="1"
     bordercolor="#666666"
     pagecolor="#ffffff" />
  <defs
     id="defs4517" />
  <rect
     id="rect4513"
     style="color:#000000;display:inline;overflow:visible;visibility:visible;fill:#1c146b;fill-opacity:1;fill-rule:nonzero;stroke:none;stroke-width:54.1645;stroke-linecap:butt;stroke-linejoin:miter;stroke-miterlimit:4;stroke-dasharray:none;stroke-dashoffset:0;stroke-opacity:1;marker:none;marker-start:none;marker-mid:none;marker-end:none;enable-background:accumulate"
     y="-3.0761719e-06"
     x="-11.439979"
     height="560.73871"
     width="577.5285" />
  <g
     transform="matrix(1.2068551,0,0,1.2068551,-0.37661484,150.62221)"
     id="g219">
    <path
       id="path4402"
       style="fill:#ffffff;fill-rule:evenodd;stroke:none;stroke-width:0.532392;stroke-linecap:butt;stroke-linejoin:miter;stroke-miterlimit:10;stroke-dasharray:none"
       d="M 343.22953,113.23884 355.49131,50.420423 H 334.20266 L 317.9666,134.28102 h 38.84948 l 4.00509,-21.04218 z" />
    <path
       id="path4404"
       style="fill:#ffffff;fill-rule:evenodd;stroke:none;stroke-width:0.532392;stroke-linecap:butt;stroke-linejoin:miter;stroke-miterlimit:10;stroke-dasharray:none"
       d="m 406.07879,69.059537 c 3.45054,0 8.50311,0.770194 11.42994,1.848509 l 3.7278,-19.440142 c -4.52883,-0.52374 -9.30414,-1.047481 -14.634,-1.047481 -23.16797,0 -34.07416,13.832996 -34.07416,29.268022 0,20.241145 20.76491,19.963882 20.76491,28.744285 0,4.28237 -3.20409,6.65462 -9.58143,6.65462 -4.80612,0 -10.9062,-1.04748 -14.63402,-2.64953 l -4.00509,20.76491 c 4.25156,1.07829 10.38245,1.60203 16.51331,1.60203 20.76491,0 35.12165,-13.86381 35.12165,-30.6236 0,-19.686597 -20.76491,-19.963884 -20.76491,-28.744283 0,-3.727828 2.68034,-6.37734 10.136,-6.37734" />
    <path
       id="path4406"
       style="fill:#ffffff;fill-rule:evenodd;stroke:none;stroke-width:0.532392;stroke-linecap:butt;stroke-linejoin:miter;stroke-miterlimit:10;stroke-dasharray:none"
       d="m 301.176,50.420423 c -31.94837,0 -52.44213,23.938163 -52.44213,53.236997 0,18.08456 9.58451,30.87007 34.0803,30.87007 9.58143,0 19.6866,-1.8485 27.94326,-5.32985 l 7.73291,-40.451509 h -21.31943 l -4.77531,24.739189 c -1.87932,0.55455 -4.00509,0.55455 -5.8536,0.55455 -10.65974,0 -14.38754,-5.8536 -14.38754,-13.83299 0,-14.387548 8.78039,-29.576122 27.17303,-29.576122 5.0526,0 10.62893,1.078291 15.6815,2.40306 0.55455,0.277287 1.07829,0.52374 1.60206,0.52374 1.60203,0.801028 3.20406,1.355578 4.28235,1.879319 l 4.49805,-21.843201 C 317.9666,51.745192 309.15539,50.420423 301.176,50.420423" />
    <path
       id="path4408"
       style="fill:#eaaf0f;fill-rule:evenodd;stroke:none;stroke-width:0.532392;stroke-linecap:butt;stroke-linejoin:miter;stroke-miterlimit:10;stroke-dasharray:none"
       d="m 140.45448,50.574447 -5.7396,27.850849 H 174.3099 C 141.50505,127.04103 76.385238,118.78437 59.163322,98.635631 44.338278,81.259666 57.145359,51.560334 101.09362,33.198483 57.588994,46.446118 33.173306,81.198047 47.520799,104.61247 c 16.260702,26.52608 66.965231,37.58632 112.025681,24.70838 30.11526,-10.56729 42.96855,-25.41695 47.66376,-33.396351 l -7.37555,38.541381 h 29.60076 l 16.05736,-83.891433 z" />
  </g>
  <path
     id="path233"
     d="m 193.47621,408.85006 c 0,-19.63259 0.0138,-27.64631 0.0306,-17.8083 0.0168,9.83801 0.0168,25.90103 0,35.6956 -0.0168,9.79456 -0.0306,1.74527 -0.0306,-17.8873 z m 65.90035,34.07876 c -9.51439,-0.57118 -16.63473,-4.44701 -19.8133,-10.78505 -0.33314,-0.66429 -0.66731,-1.38268 -0.74257,-1.59643 l -0.13685,-0.3886 -11.19649,0.0304 -11.19652,0.0304 -2.77914,5.7304 -2.77914,5.73038 -8.54846,0.0307 c -4.71298,0.0169 -8.53047,-0.0153 -8.50839,-0.0717 0.14222,-0.36319 24.85156,-49.56307 24.8783,-49.53633 0.0183,0.0183 -0.0259,0.48998 -0.0983,1.04807 -0.0725,0.5581 -0.13111,2.65327 -0.13035,4.65593 8.5e-4,3.10247 0.039,3.89131 0.25583,5.33189 0.54092,3.59457 1.45292,6.25535 2.80888,8.19496 l 0.48458,0.69316 -2.319,2.32126 -2.31896,2.32127 h 8.26614 8.26613 v -8.50352 -8.50352 l -2.45726,2.53434 c -1.35151,1.3939 -2.50304,2.53435 -2.55897,2.53435 -0.15321,0 -1.76819,-2.18527 -2.56214,-3.46687 -0.98134,-1.58413 -1.9878,-3.72585 -2.60648,-5.54656 -1.05453,-3.10337 -1.4364,-5.42068 -1.446,-8.77467 l -0.006,-2.32798 1.5811,-3.13381 1.58109,-3.13381 h 8.33812 8.33814 l 0.49384,1.7012 c 0.72166,2.48599 1.21351,4.78464 1.21387,5.6731 1e-4,0.22217 -0.22414,0.83943 -0.52044,1.4326 -0.63921,1.27965 -1.40865,3.5297 -1.77107,5.17908 -0.22945,1.04423 -0.27147,1.58636 -0.27154,3.50367 -9e-5,2.105 0.0233,2.35269 0.32595,3.44084 0.47903,1.72279 1.34949,3.3623 2.22614,4.19294 l 0.37088,0.35141 -0.29726,-0.85082 c -0.63816,-1.82657 -0.91415,-4.72105 -0.66886,-7.01499 0.4854,-4.53976 2.08704,-8.26463 4.99167,-11.60897 0.72247,-0.83182 2.62496,-2.40619 3.90645,-3.23271 3.28744,-2.12025 7.69018,-3.51 12.95847,-4.09039 1.96972,-0.21698 7.36894,-0.1876 9.53077,0.0519 9.01243,0.99835 15.56133,4.79089 18.60961,10.77703 0.79182,1.55493 1.19857,2.60642 1.4658,3.78903 0.1207,0.53427 0.22404,0.90667 0.22958,0.82756 0.005,-0.0792 0.30553,-3.26946 0.66667,-7.08964 0.36113,-3.82019 0.6566,-6.99224 0.6566,-7.049 0,-0.0573 5.37912,-0.10314 12.10298,-0.10314 h 12.10299 l 0.11842,0.80582 c 0.0651,0.44322 1.37411,9.98341 2.9088,21.20043 2.36672,17.29828 2.81138,20.34323 2.92895,20.05639 0.0762,-0.186 3.70282,-9.72531 8.05905,-21.19844 l 7.92042,-20.86024 12.14726,-0.003 c 12.14356,-0.003 12.14724,-8.5e-4 12.14724,0.2413 0,0.30868 -8.35465,62.35117 -8.40269,62.3992 -0.0196,0.0196 -3.2273,0.0217 -7.12825,0.005 l -7.09262,-0.0308 2.71202,-23.87665 c 1.4916,-13.13217 2.70021,-23.95476 2.68577,-24.05021 -0.0144,-0.0954 -4.56555,10.82251 -10.11358,24.26217 l -10.0873,24.43573 -5.91207,0.003 -5.91208,0.003 -3.99673,-24.06707 -3.99674,-24.06703 -3.2053,23.85811 c -1.7629,13.12197 -3.23266,23.979 -3.26612,24.12674 l -0.0608,0.26861 h -7.6246 -7.62461 l 0.0625,-0.32829 c 0.0343,-0.18059 0.37548,-2.17191 0.75804,-4.42518 l 0.69555,-4.09688 -0.31334,0.28633 c -2.58081,2.35827 -4.03721,3.53267 -5.85683,4.72275 -4.01579,2.6264 -8.71584,4.23653 -14.21443,4.86951 -1.87097,0.21538 -6.88784,0.30237 -9.2522,0.16043 z m 9.10293,-12.35244 c 3.1387,-0.5954 6.28397,-2.61555 7.4022,-4.75428 0.29284,-0.56009 0.32261,-0.73729 0.32513,-1.93552 0.003,-1.29065 -0.008,-1.33888 -0.45403,-2.24371 -0.33826,-0.68473 -0.71006,-1.18196 -1.4326,-1.91593 -2.00888,-2.04064 -3.92877,-2.96792 -6.94496,-3.35433 -2.02562,-0.25952 -3.83946,-0.59412 -5.611,-1.03506 -5.68611,-1.41531 -9.44928,-3.14431 -10.93528,-5.02425 l -0.48785,-0.61717 0.0831,0.59172 c 0.4645,3.30888 1.33276,7.1966 2.19849,9.84393 0.26841,0.82075 0.90162,2.31969 1.40714,3.33096 0.79824,1.59684 1.03952,1.96584 1.8345,2.80551 2.18007,2.30265 5.22035,3.86344 8.58604,4.40784 0.76947,0.12448 3.15915,0.0652 4.02914,-0.0997 z m 23.75177,-4.74405 c 1.51604,-1.93921 2.29018,-3.98776 2.66982,-7.06492 0.16921,-1.37161 0.0898,-3.61444 -0.18849,-5.32109 -0.2231,-1.36843 -0.97399,-4.27963 -1.51861,-5.88773 l -0.39695,-1.17208 0.62606,-4.79708 c 0.34433,-2.6384 0.62792,-4.918 0.63019,-5.06581 l 0.003,-0.26873 -6.95408,0.0616 c -3.82474,0.034 -7.50474,0.0871 -8.17775,0.1183 l -1.22368,0.0567 v -0.6496 c 0,-2.25567 -1.30588,-4.33152 -3.44395,-5.47453 -1.12462,-0.60124 -3.18799,-1.11698 -5.0622,-1.26533 -1.68032,-0.13299 -4.27562,0.003 -5.44808,0.28784 -1.83275,0.44348 -3.88467,1.94847 -4.67291,3.42736 -0.50473,0.94697 -0.62343,2.22883 -0.2986,3.2247 0.69385,2.12727 3.27473,4.14414 7.01121,5.47898 1.73289,0.61907 2.57538,0.82353 7.36701,1.78788 6.08574,1.22481 8.72265,2.02337 11.45662,3.46954 4.04576,2.14003 6.22015,4.52194 7.39473,8.10047 0.87012,2.65097 0.8554,6.76068 -0.0365,10.19091 -0.15599,0.59994 -0.3198,1.18482 -0.36402,1.29972 -0.14375,0.37356 0.0318,0.22292 0.62606,-0.53722 z"
     style="fill:#ffffff;stroke-width:0.119384" />
</svg>
